<svg width="24" height="24" viewBox="0 0 24 24" fill="none" xmlns="http://www.w3.org/2000/svg">
<path d="M16.1826 20.9827H8.81739C7.86087 20.9827 7 20.2175 7 19.1653V4.81751C7 3.86099 7.76522 3.00012 8.81739 3.00012H16.1826C17.1391 3.00012 18 3.76534 18 4.81751V19.1653C18 20.1219 17.1391 20.9827 16.1826 20.9827Z" stroke="black" stroke-miterlimit="10" stroke-linecap="round" stroke-linejoin="round"/>
<path d="M8.72144 17.3479H16.278" stroke="black" stroke-miterlimit="10" stroke-linecap="round" stroke-linejoin="round"/>
<path d="M12.3566 19.8349C12.7264 19.8349 13.0261 19.5351 13.0261 19.1653C13.0261 18.7955 12.7264 18.4957 12.3566 18.4957C11.9868 18.4957 11.687 18.7955 11.687 19.1653C11.687 19.5351 11.9868 19.8349 12.3566 19.8349Z" fill="black"/>
</svg>
